<svg xmlns="http://www.w3.org/2000/svg" viewBox="0 0 256 256" width="15" height="15">
<g stroke-linejoin="none" stroke-miterlimit="10" font-family="none" font-weight="none" font-size="none" text-anchor="none" style="mix-blend-mode:normal">
<path d="M251.088 13.128a13.926 13.926 0 0 1-3.217 15.403l-99.824 99.817 99.824 99.825a13.926 13.926 0 1 1-19.691 19.692l-99.832-99.818-99.817 99.824A13.926 13.926 0 1 1 8.839 228.18l99.824-99.832L8.84 28.531A13.926 13.926 0 1 1 28.53 8.839l99.817 99.824L228.18 8.84a13.926 13.926 0 0 1 22.908 4.29z" stroke="#000" stroke-linejoin="round" stroke-width="6.963"/>
<path d="M237.9 4.55a13.926 13.926 0 0 0-9.72 4.289l-99.832 99.824L28.531 8.84A13.926 13.926 0 1 0 8.839 28.53l99.824 99.817L8.84 228.18a13.926 13.926 0 1 0 19.69 19.69l99.817-99.824 99.825 99.824a13.926 13.926 0 1 0 19.692-19.691l-99.818-99.832 99.824-99.824a13.926 13.926 0 0 0-9.97-23.982z"/>
</g>
</svg>